<svg width="16" height="16" viewBox="0 0 16 16" fill="none" xmlns="http://www.w3.org/2000/svg">
<path d="M5.49995 8.60002L8.43678 11.5368C8.55667 11.6567 8.61662 11.7972 8.61662 11.9583C8.61662 12.1195 8.55551 12.2638 8.43328 12.3913C8.31106 12.5082 8.1694 12.5667 8.00828 12.5667C7.84717 12.5667 7.70656 12.5066 7.58645 12.3863L3.62328 8.41818C3.56328 8.35807 3.5194 8.29296 3.49162 8.22285C3.46384 8.15274 3.44995 8.07757 3.44995 7.99735C3.44995 7.91724 3.46384 7.84207 3.49162 7.77185C3.5194 7.70174 3.56106 7.63891 3.61662 7.58335L7.58328 3.61668C7.70551 3.49446 7.84812 3.43335 8.01112 3.43335C8.17401 3.43335 8.31473 3.49446 8.43328 3.61668C8.55551 3.73524 8.61662 3.87596 8.61662 4.03885C8.61662 4.20185 8.5564 4.34357 8.43595 4.46402L5.49995 7.40002H12.2003C12.3702 7.40002 12.5126 7.45718 12.6276 7.57152C12.7425 7.68585 12.8 7.82752 12.8 7.99652C12.8 8.16552 12.7425 8.30835 12.6276 8.42502C12.5126 8.54168 12.3702 8.60002 12.2003 8.60002H5.49995Z" fill="#6D6D6D"/>
</svg>
