<svg width="15" height="15" viewBox="0 0 15 15" fill="none" xmlns="http://www.w3.org/2000/svg">
<path d="M4.38462 3C4.00227 3 3.69231 3.30996 3.69231 3.69231C3.69231 4.07465 4.00227 4.38461 4.38462 4.38461V3ZM11.3077 3.69231H12C12 3.30996 11.69 3 11.3077 3V3.69231ZM10.6154 10.6154C10.6154 10.9977 10.9253 11.3077 11.3077 11.3077C11.69 11.3077 12 10.9977 12 10.6154H10.6154ZM3.20278 10.8182C2.93241 11.0885 2.93241 11.5269 3.20278 11.7972C3.47314 12.0676 3.91148 12.0676 4.18184 11.7972L3.20278 10.8182ZM4.38462 4.38461H11.3077V3H4.38462V4.38461ZM10.6154 3.69231V10.6154H12V3.69231H10.6154ZM10.8182 3.20278L3.20278 10.8182L4.18184 11.7972L11.7972 4.18184L10.8182 3.20278Z" fill="#111111"/>
</svg>
